<svg width="18" height="10" viewBox="0 0 18 10" fill="none" xmlns="http://www.w3.org/2000/svg">
<path d="M9.81888 9.40179L9.81875 9.40165L9.81194 9.40878C9.70972 9.51572 9.58515 9.6016 9.44579 9.66052C9.30641 9.71945 9.15556 9.75 9.00283 9.75C8.8501 9.75 8.69925 9.71945 8.55987 9.66052C8.4205 9.6016 8.29593 9.51572 8.19372 9.40878L8.19386 9.40864L8.18677 9.40179L0.577797 2.04419L0.577808 2.04418L0.57583 2.04231C0.472582 1.94462 0.390945 1.82862 0.335199 1.70127C0.279608 1.57427 0.25074 1.43825 0.250004 1.30096C0.25074 1.16367 0.279608 1.02765 0.335199 0.900653C0.390945 0.773302 0.472582 0.657296 0.575836 0.559615L0.577103 0.558398C0.781979 0.361814 1.06093 0.249999 1.35345 0.249999C1.64589 0.249999 1.92477 0.361751 2.12963 0.558233C2.12969 0.558288 2.12975 0.558343 2.1298 0.558398L8.79554 6.99253L8.96829 7.15929L9.14188 6.9934L15.8755 0.558753L15.8759 0.558399C16.0807 0.361814 16.3597 0.25 16.6522 0.25C16.9447 0.25 17.2237 0.361814 17.4286 0.558399L17.4288 0.558593C17.5312 0.656631 17.6119 0.772784 17.6669 0.900106C17.7218 1.02741 17.75 1.16362 17.75 1.30096C17.75 1.4383 17.7218 1.57451 17.6669 1.70181C17.6119 1.82913 17.5312 1.94529 17.4288 2.04333L17.4288 2.04332L17.4279 2.04419L9.81888 9.40179Z" fill="#1F74D5" stroke="#1F74D5" stroke-width="0.5"/>
</svg>
